# AST/ASF file generated using VICON BodyLanguage
# -----------------------------------------------
:version 1.10
:name VICON
:units
  mass 1.0
  length 0.45
  angle deg
:documentation
   .ast/.asf automatically generated from VICON data using
   VICON BodyBuilder and BodyLanguage model FoxedUp or BRILLIANT.MOD
:root
   order TX TY TZ RX RY RZ
   axis XYZ
   position 0 0 0  
   orientation 0 0 0 
:bonedata
  begin
     id 1 
     name lhipjoint
     direction 0.707368 -0.647095 0.284426 
     length 2.60678 
     axis 0 0 0  XYZ
  end
  begin
     id 2 
     name lfemur
     direction 0.34202 -0.939693 0  
     length 6.63812  
     axis 0 0 20  XYZ
    dof rx ry rz
    limits (-160.0 20.0)
           (-70.0 70.0)
           (-60.0 70.0)
  end
  begin
     id 3 
     name ltibia
     direction 0.34202 -0.939693 0   
     length 7.51178   
     axis 0 0 20   XYZ
    dof rx
    limits (-10.0 170.0)
  end
  begin
     id 4 
     name lfoot
     direction 0.121251 -0.333133 0.935051   
     length 1.83716   
     axis -90 7.62852e-016 20   XYZ
    dof rx rz
    limits (-45.0 90.0)
           (-70.0 20.0)
  end
  begin
     id 5 
     name ltoes
     direction 1.53611e-011 -4.21962e-011 1   
     length 0.916133   
     axis -90 7.62852e-016 20   XYZ
    dof rx
    limits (-90.0 20.0)
  end
  begin
     id 6 
     name rhipjoint
     direction -0.692419 -0.660507 0.290321   
     length 2.55385  
     axis 0 0 0  XYZ 
  end
  begin
     id 7 
     name rfemur
     direction -0.34202 -0.939693 0   
     length 7.29079   
     axis 0 0 -20   XYZ
    dof rx ry rz
    limits (-160.0 20.0)
           (-70.0 70.0)
           (-70.0 60.0)
  end
  begin
     id 8 
     name rtibia
     direction -0.34202 -0.939693 0   
     length 7.47143   
     axis 0 0 -20   XYZ
    dof rx
    limits (-10.0 170.0)
 end
 begin
     id 9 
     name rfoot
     direction -0.119907 -0.329441 0.936532   
     length 1.79439  
     axis -90 -7.62852e-016 -20   XYZ
    dof rx rz
    limits (-45.0 90.0)
           (-20.0 70.0)
  end
  begin
     id 10 
     name rtoes
     direction -1.53571e-011 -4.21961e-011 1   
     length 0.896039   
     axis -90 -7.62852e-016 -20   XYZ
    dof rx
    limits (-90.0 20.0)
  end
  begin
     id 11 
     name lowerback
     direction 0.0367721 0.992912 -0.113016   
     length 1.73542   
     axis 0 0 0   XYZ
    dof rx ry rz
    limits (-20.0 45.0)
           (-30.0 30.0)
           (-30.0 30.0)
  end
  begin
     id 12 
     name upperback
     direction -0.000314626 0.990678 0.136227   
     length 1.7514   
     axis 0 0 0   XYZ
    dof rx ry rz
    limits (-20.0 45.0)
           (-30.0 30.0)
           (-30.0 30.0)
  end
  begin
     id 13 
     name thorax
     direction -0.0226159 0.981151 0.191917   
     length 1.71471   
     axis 0 0 0   XYZ
    dof rx ry rz
    limits (-20.0 45.0)
           (-30.0 30.0)
           (-30.0 30.0)
  end
  begin
     id 14 
     name lowerneck
     direction 0.0219333 0.998071 0.0580739   
     length 1.65882   
     axis 0 0 0   XYZ
    dof rx ry rz
    limits (-20.0 45.0)
           (-30.0 30.0)
           (-30.0 30.0)
  end
  begin
     id 15 
     name upperneck
     direction 0.0384529 0.980058 -0.194957   
     length 1.6612   
     axis 0 0 0   XYZ
    dof rx ry rz
    limits (-20.0 45.0)
           (-30.0 30.0)
           (-30.0 30.0)
  end
  begin
     id 16
     name head
     direction 0.00592123 0.997421 -0.0715234  
     length 1.68077  
     axis 0 0 0   XYZ
    dof rx ry rz
    limits (-20.0 45.0)
           (-30.0 30.0)
           (-30.0 30.0)
  end
  begin
     id 17 
     name lclavicle
     direction 0.904803 0.417826 0.0821728  
     length 3.42227  
     axis 0 0 0   XYZ
    dof ry rz
    limits (-20.0 10.0)
           (0.0 20.0)
  end
  begin
     id 18 
     name lhumerus
     direction 1 -4.48965e-011 -2.68786e-027   
     length 5.11878   
     axis -180 -30 -90   XYZ
    dof rx ry rz
    limits (-60.0 90.0)
           (-90.0 90.0)
           (-90.0 90.0)
  end
  begin
     id 19
     name lradius
     direction 1 -4.48965e-011 2.61168e-028   
     length 3.59971   
     axis -180 -30 -90   XYZ
    dof rx
    limits (-10.0 170.0)
  end
  begin
     id 20
     name lwrist
     direction 1 -4.48965e-011 1.58672e-027   
     length 1.79985   
     axis -1.65735e-015 90 90   XYZ
    dof ry
    limits (-180.0 0.0)
 end
  begin
     id 21 
     name lhand
     direction 1 -4.48942e-011 3.17344e-027   
     length 0.62877   
     axis -2.02492e-015 90 90   XYZ
    dof rx rz
    limits (-90.0 90.0)
           (-45.0 45.0)
  end
  begin
     id 22 
     name lfingers
     direction 1 -4.49011e-011 6.34687e-027   
     length 0.506931   
     axis -4.04985e-015 90 90   XYZ
    dof rx
    limits (0.0 90.0)
  end
  begin
     id 23
     name lthumb
     direction 0.707107 -6.34982e-011 0.707107   
     length 0.727854   
     axis -90 45 2.85299e-015   XYZ
    dof rx rz
    limits (-45.0 45.0)
           (-45.0 45.0)
  end
  begin
     id 24 
     name rclavicle
     direction -0.945647 0.32488 0.0143075   
     length 3.52737  
     axis 0 0 0   XYZ 
    dof ry rz
    limits (-10.0 20.0)
           (-20.0 0.0)
  end
  begin
     id 25 
     name rhumerus
     direction -1 -4.48962e-011 1.92182e-027  
     length 5.4902   
     axis -180 30 90   XYZ
    dof rx ry rz
    limits (-90.0 60.0)
           (-90.0 90.0)
           (-90.0 90.0)
  end
  begin
     id 26 
     name rradius
     direction -1 -4.48967e-011 -5.97193e-028   
     length 3.20659   
     axis -180 30 90   XYZ
    dof rx
    limits (-10.0 170.0)
  end
  begin
     id 27 
     name rwrist
     direction -1 -4.48964e-011 1.58672e-027   
     length 1.6033   
     axis -1.65735e-015 -90 -90   XYZ
    dof ry
    limits (-180.0 0.0)
  end
  begin
     id 28
     name rhand
     direction -1 -4.49006e-011 3.17344e-027   
     length 0.691885   
     axis -2.02492e-015 -90 -90   XYZ
    dof rx rz
    limits (-90.0 90.0)
           (-45.0 45.0)
  end
  begin
     id 29
     name rfingers
     direction -1 -4.48908e-011 6.34687e-027   
     length 0.557815   
     axis -4.04985e-015 -90 -90   XYZ
    dof rx
    limits (0.0 90.0)
  end
  begin
     id 30
     name rthumb
     direction -0.707107 -6.34999e-011 0.707107   
     length 0.800915   
     axis -90 -45 -2.85299e-015   XYZ
    dof rx rz
    limits (-45.0 45.0)
           (-45.0 45.0)
  end
:hierarchy
  begin
    root lhipjoint rhipjoint lowerback
    lhipjoint lfemur
    lfemur ltibia
    ltibia lfoot
    lfoot ltoes
    rhipjoint rfemur
    rfemur rtibia
    rtibia rfoot
    rfoot rtoes
    lowerback upperback
    upperback thorax
    thorax lowerneck lclavicle rclavicle
    lowerneck upperneck
    upperneck head
    lclavicle lhumerus
    lhumerus lradius
    lradius lwrist
    lwrist lhand lthumb
    lhand lfingers
    rclavicle rhumerus
    rhumerus rradius
    rradius rwrist
    rwrist rhand rthumb
    rhand rfingers
  end

#!OML:ASF I:\Actors\actors\Patient Classification 1\Patient 1\Session 1\Subject1.ASF
:FULLY-SPECIFIED
:DEGREES
122
root 0.812758 17.417 9.41714 9.21377 -1.58594 -8.98832
lowerback -1.58393 0.263335 5.68058
upperback -8.65549 0.708026 2.75703
thorax -8.19348 0.0574509 -0.300741
lowerneck -9.57008 -4.36545 -3.6926
upperneck 32.6665 -7.41803 5.28978
head 12.7956 -3.12641 1.65979
rclavicle 2.65874e-015 5.79457e-014
rhumerus -41.7727 18.7439 -100.446
rradius 95.1669
rwrist 0.0142542
rhand 9.50074 -37.9775
rfingers 7.12502
rthumb 34.6527 -64.614
lclavicle 2.65874e-015 5.79457e-014
lhumerus -43.2993 -23.1436 108.147
lradius 94.3726
lwrist 12.5291
lhand -29.5213 -12.3168
lfingers 7.12502
lthumb -2.85514 17.6438
rfemur -4.36927 21.8582 25.0218
rtibia 5.24663
rfoot -12.8757 -24.9146
rtoes 0.275193
lfemur 6.83399 -43.5998 -12.7901
ltibia -4.35828
lfoot -20.977 51.3263
ltoes 7.9384
123
root 0.817613 17.4186 9.40941 9.12179 -1.60524 -8.97161
lowerback -1.48292 0.298419 5.70723
upperback -8.67954 0.762181 2.69922
thorax -8.27581 0.0778018 -0.37934
lowerneck -9.58332 -4.33673 -3.67742
upperneck 32.8877 -7.38677 5.26625
head 12.8886 -3.10967 1.65445
rclavicle 3.35449e-015 1.19271e-015
rhumerus -41.0475 19.9373 -101.049
rradius 95.8808
rwrist -2.1296
rhand 11.627 -38.3067
rfingers 7.12502
rthumb 36.6679 -64.4564
lclavicle 3.35449e-015 1.19271e-015
lhumerus -42.3546 -25.3274 108.801
lradius 94.0427
lwrist 7.4234
lhand -28.7682 -15.7885
lfingers 7.12502
lthumb -2.12788 14.1806
rfemur -4.41034 21.673 24.9968
rtibia 5.44534
rfoot -12.8875 -24.7371
rtoes 0.0650919
lfemur 6.78086 -43.1976 -12.7714
ltibia -4.31604
lfoot -20.5832 50.9895
ltoes 7.52924
124
root 0.821769 17.4202 9.40288 9.03987 -1.65039 -8.94513
lowerback -1.41384 0.33297 5.69932
upperback -8.68558 0.812041 2.66166
thorax -8.31981 0.100378 -0.417555
lowerneck -9.61717 -4.28185 -3.34155
upperneck 33.046 -7.2824 4.93568
head 12.9262 -3.05988 1.48351
rclavicle -1.16786e-015 1.39149e-015
rhumerus -40.1882 20.9998 -101.508
rradius 96.4502
rwrist -4.25569
rhand 12.7847 -37.9049
rfingers 7.12502
rthumb 37.7625 -63.7683
lclavicle -1.16786e-015 1.39149e-015
lhumerus -41.4353 -27.2231 109.344
lradius 93.5375
lwrist 2.14982
lhand -28.7047 -19.0409
lfingers 7.12502
lthumb -2.06655 10.9289
rfemur -4.46453 21.5779 24.962
rtibia 5.67531
rfoot -12.9847 -24.6095
rtoes 0.109089
lfemur 6.77776 -42.9211 -12.8068
ltibia -4.28329
lfoot -20.3354 50.7801
ltoes 7.38418
125
root 0.824738 17.4215 9.39655 8.95361 -1.70685 -8.89937
lowerback -1.35772 0.342849 5.6108
upperback -8.65888 0.826128 2.67189
thorax -8.32228 0.11449 -0.359062
lowerneck -9.6913 -4.20535 -3.19378
upperneck 33.1547 -7.13378 4.71384
head 12.9631 -3.00002 1.39222
rclavicle -2.38542e-015 1.42131e-014
rhumerus -39.3275 21.871 -101.825
rradius 96.8948
rwrist -5.95817
rhand 14.2043 -37.5937
rfingers 7.12502
rthumb 39.1021 -63.0844
lclavicle -2.38542e-015 1.42131e-014
lhumerus -40.5124 -28.6077 109.746
lradius 92.8642
lwrist -3.38491
lhand -29.6205 -21.5817
lfingers 7.12502
lthumb -2.95097 8.37767
rfemur -4.51336 21.5695 24.9077
rtibia 5.89429
rfoot -13.0898 -24.5438
rtoes 0.311446
lfemur 6.84198 -42.8371 -12.9281
ltibia -4.24317
lfoot -20.2613 50.718
ltoes 7.48578
126
root 0.828736 17.4217 9.38998 8.86335 -1.78031 -8.88197
lowerback -1.28893 0.338905 5.55214
upperback -8.60578 0.823283 2.70112
thorax -8.30433 0.119574 -0.296483
lowerneck -9.8138 -4.18266 -3.46102
upperneck 33.1834 -7.04732 4.74819
head 13.0097 -2.98759 1.46177
rclavicle 1.81639e-014 -3.18055e-015
rhumerus -38.5248 22.5138 -102.084
rradius 97.2441
rwrist -6.96219
rhand 15.3647 -37.2909
rfingers 7.12502
rthumb 40.1949 -62.4579
lclavicle 1.81639e-014 -3.18055e-015
lhumerus -39.5831 -29.4959 109.939
lradius 92.0636
lwrist -8.97249
lhand -31.3689 -23.2476
lfingers 7.12502
lthumb -4.63931 6.68158
rfemur -4.55112 21.4956 24.8738
rtibia 6.07093
rfoot -13.0846 -24.3973
rtoes 0.293924
lfemur 6.92778 -42.7739 -13.0451
ltibia -4.19463
lfoot -20.2489 50.6848
ltoes 7.51705
127
root 0.834684 17.4213 9.38358 8.76684 -1.88817 -8.92852
lowerback -1.19442 0.332536 5.53706
upperback -8.55188 0.82348 2.7738
thorax -8.30151 0.124518 -0.212386
lowerneck -9.9646 -4.11294 -3.46286
upperneck 33.2868 -6.8915 4.585
head 13.0702 -2.93498 1.41843
rclavicle 1.19271e-015 -8.94531e-015
rhumerus -37.816 23.0378 -102.294
rradius 97.534
rwrist -7.49501
rhand 15.7079 -37.2995
rfingers 7.12502
rthumb 40.5176 -62.3673
lclavicle 1.19271e-015 -8.94531e-015
lhumerus -38.7501 -29.8402 110.016
lradius 91.3348
lwrist -13.5509
lhand -33.5344 -24.592
lfingers 7.12502
lthumb -6.73012 5.28106
rfemur -4.61893 21.2901 24.8984
rtibia 6.31707
rfoot -13.0913 -24.1037
rtoes 0.125748
lfemur 7.02694 -42.5703 -13.084
ltibia -4.18215
lfoot -20.0213 50.6051
ltoes 7.12417
128
root 0.840121 17.4213 9.37897 8.66431 -2.0408 -8.9586
lowerback -1.05744 0.335194 5.48065
upperback -8.52023 0.839537 2.8547
thorax -8.34768 0.13934 -0.0974291
lowerneck -10.1238 -4.02792 -3.29131
upperneck 33.4349 -6.72558 4.32701
head 13.1404 -2.86782 1.30951
rclavicle -1.09207e-014 1.0635e-014
rhumerus -37.2811 23.4 -102.474
rradius 97.8125
rwrist -7.86791
rhand 15.3387 -37.8623
rfingers 7.12502
rthumb 40.1704 -63.0367
lclavicle -1.09207e-014 1.0635e-014
lhumerus -38.1345 -29.5825 110.065
lradius 90.8711
lwrist -16.5825
lhand -35.5401 -25.9083
lfingers 7.12502
lthumb -8.66597 3.89383
rfemur -4.70909 21.083 24.9006
rtibia 6.62941
rfoot -13.1873 -23.7608
rtoes 0.171669
lfemur 7.14465 -42.2657 -13.1378
ltibia -4.18998
lfoot -19.6289 50.4816
ltoes 6.56061
129
root 0.844887 17.4214 9.37674 8.55327 -2.21491 -8.97221
lowerback -0.890827 0.343314 5.4782
upperback -8.48691 0.863897 2.88692
thorax -8.40835 0.15195 -0.0644187
lowerneck -10.2295 -3.92398 -3.04708
upperneck 33.5008 -6.55766 4.10678
head 13.1632 -2.78828 1.20355
rclavicle 9.70318e-015 -4.29375e-014
rhumerus -36.8068 23.566 -102.672
rradius 98.0732
rwrist -8.11345
rhand 14.5932 -38.7462
rfingers 7.12502
rthumb 39.4686 -64.1303
lclavicle 9.70318e-015 -4.29375e-014
lhumerus -37.6964 -28.911 110.015
lradius 90.7394
lwrist -17.8558
lhand -36.8515 -26.828
lfingers 7.12502
lthumb -9.93141 2.91776
rfemur -4.76906 20.9391 24.8969
rtibia 6.9185
rfoot -13.262 -23.4482
rtoes 0.1509
lfemur 7.3213 -42.0207 -13.2565
ltibia -4.19681
lfoot -19.568 50.3981
ltoes 6.51815
130
root 0.850667 17.4214 9.37582 8.44714 -2.40892 -8.98941
lowerback -0.713569 0.352702 5.6056
upperback -8.45764 0.891406 2.84901
thorax -8.47852 0.153301 -0.177741
lowerneck -10.2965 -3.78353 -2.77652
upperneck 33.501 -6.33896 3.88896
head 13.1469 -2.68466 1.10178
rclavicle 2.85753e-015 1.83876e-014
rhumerus -36.3574 23.5681 -102.934
rradius 98.3235
rwrist -8.26518
rhand 13.7442 -39.9182
rfingers 7.12502
rthumb 38.6683 -65.5324
lclavicle 2.85753e-015 1.83876e-014
lhumerus -37.4955 -28.0501 109.862
lradius 90.957
lwrist -17.2693
lhand -37.5117 -26.9854
lfingers 7.12502
lthumb -10.5682 2.72885
rfemur -4.80783 20.8133 24.9006
rtibia 7.16035
rfoot -13.2434 -23.1608
rtoes -0.237181
lfemur 7.59299 -42.0151 -13.4724
ltibia -4.20806
lfoot -19.9252 50.5208
ltoes 7.08521
131
root 0.855715 17.4224 9.37523 8.38193 -2.65034 -8.97649
lowerback -0.563732 0.380921 5.74583
upperback -8.4511 0.939975 2.75165
thorax -8.55544 0.160915 -0.362187
lowerneck -10.3842 -3.61969 -2.28786
upperneck 33.5649 -6.10733 3.5647
head 13.151 -2.56049 0.922177
rclavicle 9.14409e-015 2.90226e-014
rhumerus -35.9882 23.4627 -103.208
rradius 98.5913
rwrist -8.38462
rhand 13.0252 -41.1529
rfingers 7.12502
rthumb 37.9896 -66.9549
lclavicle 9.14409e-015 2.90226e-014
lhumerus -37.5556 -27.1598 109.65
lradius 91.4986
lwrist -14.9351
lhand -37.4785 -26.363
lfingers 7.12502
lthumb -10.5363 3.35294
rfemur -4.88417 20.7632 24.8525
rtibia 7.37224
rfoot -13.2082 -22.9172
rtoes -0.602229
lfemur 7.80138 -41.9965 -13.6819
ltibia -4.20349
lfoot -20.1507 50.6645
ltoes 7.48549
132
root 0.860825 17.4236 9.3756 8.34068 -2.94045 -8.9079
lowerback -0.423232 0.444136 5.80101
upperback -8.46053 1.03203 2.64905
thorax -8.64184 0.195396 -0.508111
lowerneck -10.5043 -3.44799 -2.04285
upperneck 33.6168 -5.86414 3.42187
head 13.175 -2.43775 0.856807
rclavicle -9.01985e-015 5.34731e-014
rhumerus -35.8083 23.5291 -103.491
rradius 98.9486
rwrist -8.94067
rhand 11.1949 -41.6327
rfingers 7.12502
rthumb 36.2588 -67.8852
lclavicle -9.01985e-015 5.34731e-014
lhumerus -37.8588 -26.3037 109.476
lradius 92.3097
lwrist -10.7987
lhand -37.3963 -25.637
lfingers 7.12502
lthumb -10.4569 4.08296
rfemur -4.99022 20.744 24.722
rtibia 7.57375
rfoot -13.1826 -22.6728
rtoes -0.917393
lfemur 7.90721 -41.7356 -13.8725
ltibia -4.16737
lfoot -20.202 50.6309
ltoes 7.47905
